<?xml version="1.0" encoding="UTF-8" standalone="no"?>
<svg width="32px" height="51px" viewBox="0 0 32 51" version="1.1" xmlns="http://www.w3.org/2000/svg" xmlns:xlink="http://www.w3.org/1999/xlink" xmlns:sketch="http://www.bohemiancoding.com/sketch/ns">
    <!-- Generator: Sketch 3.2.2 (9983) - http://www.bohemiancoding.com/sketch -->
    <title>Group</title>
    <desc>Created with Sketch.</desc>
    <defs></defs>
    <g id="Page-1" stroke="none" stroke-width="1" fill="none" fill-rule="evenodd" sketch:type="MSPage">
        <g id="Group" sketch:type="MSLayerGroup" fill="#FF3934">
            <ellipse id="Oval" sketch:type="MSShapeGroup" cx="16.8426667" cy="4.74352041" rx="4.86133333" ry="4.74352041"></ellipse>
            <path d="M31.5178667,47.8062551 L31.5178667,47.8062551 L31.5178667,47.8052143 C31.4645333,47.5309592 26.9824,35.3575714 26.9824,35.3575714 L20.2112,28.6297347 L20.2112,14.9731837 C20.2112,11.8710306 14.4442667,9.84508163 13.7696,10.2999184 C13.3269333,10.5981122 3.184,16.7410102 3.184,16.7410102 L2.10826667,27.1918469 C2.09493333,27.2881224 2.08586667,27.384398 2.08586667,27.4837959 C2.08586667,28.6630408 3.0656,29.6190306 4.27413333,29.6190306 C5.48266667,29.6190306 6.4624,28.6630408 6.4624,27.4837959 L7.36746667,19.5251939 L12.4074667,16.6613878 L12.4074667,28.5901837 L21.656,37.2919286 L26.376,49.2233265 C26.7616,50.2084592 27.7365333,50.9089286 28.8810667,50.9089286 C30.3632,50.9089286 31.5653333,49.7359286 31.5653333,48.2907551 C31.5658667,48.1247449 31.5658667,48.0513673 31.5178667,47.8062551 L31.5178667,47.8062551 Z" id="Shape" sketch:type="MSShapeGroup"></path>
            <path d="M1.07573333,46.1102449 C0.676266667,46.5676837 0.434133333,47.1593878 0.434133333,47.8067755 C0.434133333,49.2524694 1.63626667,50.4254694 3.11786667,50.4254694 C4.06506667,50.4254694 4.89546667,49.9456531 5.37333333,49.2222857 L13.5818667,38.8609592 L16.1066667,33.4143673 L11.9557333,29.6185102 L8.88746667,35.7275816 L1.07573333,46.1102449 L1.07573333,46.1102449 Z" id="Shape" sketch:type="MSShapeGroup"></path>
            <path d="M21.4085333,20.3713776 C21.4085333,20.3713776 21.3264,26.253551 21.4085333,26.1322959 C21.4805333,26.0266531 24.4437333,28.4262551 25.2064,29.0465816 C25.2624,29.098102 25.3210667,29.1454592 25.3824,29.1907347 C25.3834667,29.1907347 25.3845333,29.1917755 25.3845333,29.1917755 L25.3845333,29.1917755 C25.7493333,29.4592653 26.2021333,29.6185102 26.6938667,29.6185102 C27.9013333,29.6185102 28.8816,28.6625204 28.8816,27.4832755 C28.8816,26.6886122 28.4389333,26.1983878 27.7744,25.6290612 L21.4085333,20.3713776 L21.4085333,20.3713776 Z" id="Shape" sketch:type="MSShapeGroup"></path>
        </g>
    </g>
</svg>